<svg width="40" height="40" viewBox="0 0 40 40" fill="none" xmlns="http://www.w3.org/2000/svg">
  <rect width="40" height="40" rx="8" fill="#1E88E5"/>
  <path d="M12 20C12 16.13 15.13 13 19 13H25C28.87 13 32 16.13 32 20C32 23.87 28.87 27 25 27H19C15.13 27 12 23.87 12 20Z" fill="white"/>
  <path d="M20 17V23M17 20H23" stroke="#1E88E5" stroke-width="2" stroke-linecap="round" stroke-linejoin="round"/>
  <path d="M8 20C8 13.37 13.37 8 20 8V8C26.63 8 32 13.37 32 20V20C32 26.63 26.63 32 20 32V32C13.37 32 8 26.63 8 20V20Z" stroke="white" stroke-width="2" stroke-linecap="round" stroke-linejoin="round"/>
</svg>